<svg width="16" height="10" viewBox="0 0 16 10" fill="none" xmlns="http://www.w3.org/2000/svg">
<path fill-rule="evenodd" clip-rule="evenodd" d="M15.2754 0.714831C15.571 1.00502 15.5753 1.47988 15.2852 1.77547L9.45563 7.71294C9.31461 7.8566 9.12173 7.93749 8.92046 7.93749C8.71914 7.93749 8.52632 7.8566 8.3853 7.71294L5.85225 5.13303L1.78517 9.27545C1.49498 9.57099 1.02012 9.57538 0.724557 9.28518C0.428992 8.99499 0.424632 8.52013 0.714826 8.22453L5.31709 3.53705C5.45811 3.39345 5.65099 3.3125 5.85225 3.3125C6.05357 3.3125 6.24639 3.39345 6.38747 3.53705L8.92046 6.11696L14.2148 0.724557C14.505 0.428991 14.9799 0.424631 15.2754 0.714831Z" fill="#FF6C22"/>
<path fill-rule="evenodd" clip-rule="evenodd" d="M10.25 1.25C10.25 0.835784 10.5858 0.5 11 0.5H14.75C15.1642 0.5 15.5 0.835784 15.5 1.25V5C15.5 5.41423 15.1642 5.74998 14.75 5.74998C14.3358 5.74998 14 5.41423 14 5V2.00002H11C10.5858 2.00002 10.25 1.66421 10.25 1.25Z" fill="#FF6C22"/>
</svg>
